<svg width="41" height="41" viewBox="0 0 41 41" fill="none" xmlns="http://www.w3.org/2000/svg">
<path fill-rule="evenodd" clip-rule="evenodd" d="M8.44596 1.68921C6.65395 1.68921 4.93534 2.40108 3.6682 3.66823C2.40105 4.93537 1.68918 6.65398 1.68918 8.44599V32.0947C1.68918 33.8868 2.40105 35.6054 3.6682 36.8725C4.93534 38.1397 6.65395 38.8515 8.44596 38.8515H32.0947C33.8867 38.8515 35.6053 38.1397 36.8725 36.8725C38.1396 35.6054 38.8515 33.8868 38.8515 32.0947V8.44599C38.8515 6.65398 38.1396 4.93537 36.8725 3.66823C35.6053 2.40108 33.8867 1.68921 32.0947 1.68921H8.44596ZM6.75677 24.5407L11.0271 16.0001H22.9224V18.495C23.4349 18.065 24.0828 17.8299 24.7518 17.8312C26.5474 17.8312 27.8008 19.4511 27.8008 21.1859C27.8008 22.919 26.5474 24.5407 24.7518 24.5407C24.0423 24.5407 23.4173 24.2873 22.9207 23.8751V24.5407H21.0913V16.6099L17.1267 24.5407H6.75677ZM27.8008 21.1859C27.8008 19.4511 29.0559 17.8312 30.8515 17.8312C32.3244 17.8312 33.4326 18.9207 33.7839 20.2704H31.8278C31.5846 19.8768 31.1994 19.6606 30.8515 19.6606C30.289 19.6606 29.6319 20.2248 29.6319 21.1859C29.6319 22.1454 30.289 22.7096 30.8515 22.7096C31.1994 22.7096 31.5846 22.4934 31.8278 22.1015H33.7839C33.4326 23.4494 32.3244 24.5407 30.8515 24.5407C29.0559 24.5407 27.8008 22.919 27.8008 21.1859ZM24.7518 19.6606C24.1893 19.6606 23.5322 20.2248 23.5322 21.1859C23.5322 22.1454 24.1893 22.7096 24.7518 22.7096C25.3143 22.7096 25.9714 22.1454 25.9714 21.1859C25.9714 20.2231 25.3143 19.6606 24.7518 19.6606Z" fill="white"/>
</svg>
