<svg width="38" height="38" viewBox="0 0 38 38" fill="none" xmlns="http://www.w3.org/2000/svg">
<path d="M18.5829 0.0202704C14.9849 0.0202704 12.4004 0.0619373 10.8294 0.145271C9.43599 0.196857 8.05561 0.433736 6.72469 0.849666C5.36827 1.33278 4.14022 2.11319 3.10981 3.13008C2.0794 4.14698 1.31926 5.37502 0.829395 6.74327C0.413466 8.0742 0.176586 9.45457 0.125 10.848C0.0405406 12.4257 0 15.0034 0 18.6014C0 22.1994 0.0416667 24.7839 0.125 26.3548C0.175676 27.7484 0.412164 29.1251 0.829395 30.4596C1.31424 31.8177 2.0929 33.052 3.10981 34.0745C4.11657 35.088 5.35644 35.8481 6.72469 36.2704C8.04395 36.7434 9.42741 37.0086 10.8294 37.0576C12.4055 37.1421 14.9849 37.1826 18.5829 37.1826C22.1808 37.1826 24.7653 37.1409 26.3363 37.0576C27.7297 37.006 29.1101 36.7691 30.441 36.3532C31.7991 35.8684 33.0334 35.0897 34.0559 34.0728C35.0728 33.0503 35.8515 31.816 36.3363 30.4579C36.7535 29.1268 36.99 27.7383 37.0407 26.3532C37.1252 24.7771 37.1657 22.1977 37.1657 18.5997C37.1657 15.0018 37.1387 12.4342 37.0829 10.8801C37.0088 9.4692 36.758 8.07316 36.3363 6.72469C35.8515 5.36659 35.0728 4.13226 34.0559 3.10981C33.0334 2.0929 31.7991 1.31424 30.441 0.829396C29.1101 0.413466 27.7297 0.176587 26.3363 0.125001C24.7602 0.0405408 22.1808 0 18.5829 0V0.0202704ZM17.2551 33.8042C15.0423 33.8042 13.3362 33.7772 12.12 33.7214C10.6053 33.696 9.10047 33.4728 7.64361 33.0576C6.83256 32.7433 6.09602 32.2633 5.48113 31.6481C4.86623 31.0329 4.38651 30.2961 4.07265 29.4849C3.65744 28.0281 3.43426 26.5232 3.4088 25.0086C3.35305 23.7923 3.32434 22.0694 3.32434 19.8734V17.2214C3.32434 15.0085 3.35305 13.3024 3.4088 12.0862C3.42413 10.5707 3.6475 9.06453 4.07265 7.60983C4.37141 6.79112 4.84551 6.04761 5.46176 5.43136C6.07802 4.8151 6.82153 4.341 7.64024 4.04225C9.0971 3.62703 10.6019 3.40386 12.1166 3.37839C13.3328 3.32265 15.0558 3.29393 17.2518 3.29393H19.9038C22.1166 3.29393 23.8227 3.32265 25.039 3.37839C26.5544 3.39373 28.0606 3.6171 29.5153 4.04225C30.3344 4.34079 31.0782 4.8148 31.6947 5.43107C32.3113 6.04733 32.7857 6.79095 33.0846 7.60983C33.5086 9.06592 33.7316 10.5659 33.7485 12.0862C33.8025 13.2472 33.8301 14.959 33.8312 17.2214V19.8734C33.8312 22.0862 33.8025 23.7923 33.7485 25.0086C33.7214 26.5238 33.4985 28.0322 33.0846 29.4849C32.7657 30.2937 32.2859 31.0293 31.6741 31.6471C31.0594 32.2626 30.323 32.743 29.5119 33.0576C28.0564 33.4786 26.5507 33.7019 25.0356 33.7214C23.8757 33.7777 22.1639 33.8053 19.9004 33.8042H17.2484H17.2551ZM28.539 6.2703C28.0804 6.26978 27.632 6.40553 27.2507 6.66031C26.8694 6.91509 26.5724 7.27742 26.3973 7.7013C26.2223 8.12518 26.1772 8.5915 26.2677 9.04108C26.3581 9.49066 26.5802 9.90322 26.9055 10.2264C27.1164 10.4471 27.3703 10.6221 27.6516 10.7407C27.9328 10.8592 28.2355 10.9187 28.5407 10.9156C28.84 10.9212 29.1371 10.8626 29.4119 10.7437C29.6866 10.6249 29.9327 10.4484 30.1336 10.2264C30.5552 9.78054 30.8126 9.20448 30.8633 8.59294C30.855 7.97923 30.6074 7.39303 30.1732 6.95919C29.7391 6.52535 29.1527 6.27817 28.539 6.2703ZM18.5896 9.26018C16.9564 9.24917 15.3509 9.68179 13.9443 10.5119C12.536 11.3285 11.3656 12.4989 10.549 13.9072C9.72862 15.3178 9.29644 16.9206 9.29644 18.5524C9.29644 20.1843 9.72862 21.7871 10.549 23.1977C11.3637 24.6075 12.5346 25.7783 13.9443 26.593C15.355 27.4134 16.9577 27.8456 18.5896 27.8456C20.2215 27.8456 21.8242 27.4134 23.2349 26.593C24.6446 25.7783 25.8155 24.6075 26.6302 23.1977C27.4506 21.7871 27.8828 20.1843 27.8828 18.5524C27.8828 16.9206 27.4506 15.3178 26.6302 13.9072C25.8136 12.4989 24.6432 11.3285 23.2349 10.5119C21.8283 9.68179 20.2228 9.24917 18.5896 9.26018ZM18.5896 24.5305C17.8047 24.53 17.0277 24.3746 16.303 24.0731C15.5783 23.7717 14.9203 23.3301 14.3666 22.7737C13.2445 21.6545 12.6127 20.1356 12.6099 18.5508C12.6103 17.7659 12.7658 16.9888 13.0672 16.2641C13.3687 15.5394 13.8103 14.8814 14.3666 14.3278C15.4859 13.2057 17.0048 12.5738 18.5896 12.571C19.3745 12.5715 20.1516 12.7269 20.8762 13.0284C21.6009 13.3298 22.259 13.7714 22.8126 14.3278C23.9347 15.447 24.5665 16.9659 24.5694 18.5508C24.5689 19.3356 24.4135 20.1127 24.112 20.8374C23.8105 21.5621 23.3689 22.2201 22.8126 22.7737C21.6934 23.8958 20.1745 24.5277 18.5896 24.5305Z" fill="white"/>
</svg>
