<svg width="36" height="36" viewBox="0 0 36 36" fill="none" xmlns="http://www.w3.org/2000/svg">
<path d="M17.7366 0C27.5322 0 35.4731 7.94091 35.4731 17.7366C35.4731 27.5322 27.5322 35.4731 17.7366 35.4731C7.94091 35.4731 0 27.5322 0 17.7366C0 7.94091 7.94091 0 17.7366 0Z" stroke="white" stroke-width="2.53379" stroke-linecap="round" stroke-linejoin="round"/>
<path d="M28.7163 14.6741C26.001 12.5854 22.5043 11.4038 18.9621 11.0752C15.4367 10.7484 11.7137 11.2526 8.44598 12.7011M25.794 19.9959C23.6521 18.3084 20.8852 17.3523 18.0829 17.0879C15.2205 16.8177 12.1926 17.2552 9.56254 18.501M22.8455 25.338C21.2797 24.0626 19.2552 23.3413 17.2036 23.142C15.1639 22.9435 13.0077 23.2518 11.12 24.1378" stroke="white" stroke-width="2.53379" stroke-linecap="round" stroke-linejoin="round"/>
</svg>
