<svg width="40" height="29" viewBox="0 0 40 29" fill="none" xmlns="http://www.w3.org/2000/svg">
<path d="M23.9935 14.1961L16.9954 18.195V10.1972L23.9935 14.1961Z" fill="white" stroke="white" stroke-width="2.99919" stroke-linecap="round" stroke-linejoin="round"/>
<path d="M9.702e-09 15.6118V12.7805C9.702e-09 6.9921 0 4.09689 1.80951 2.23539C3.62102 0.371899 6.47224 0.291921 12.1727 0.129965C14.872 0.0539855 17.6312 0 19.9946 0C22.3579 0 25.1152 0.0539855 27.8164 0.129965C33.5169 0.291921 36.3681 0.371899 38.1776 2.23539C39.9871 4.09889 39.9891 6.9941 39.9891 12.7805V15.6098C39.9891 21.4002 39.9891 24.2934 38.1796 26.1569C36.3681 28.0184 33.5189 28.1004 27.8164 28.2603C25.1172 28.3383 22.3579 28.3923 19.9946 28.3923C17.6312 28.3923 14.874 28.3383 12.1727 28.2603C6.47224 28.1004 3.62102 28.0204 1.80951 26.1569C-0.00199955 24.2934 9.702e-09 21.3982 9.702e-09 15.6118Z" stroke="white" stroke-width="2.99919"/>
</svg>
